<svg xmlns="http://www.w3.org/2000/svg" viewBox="0 0 64 48">
  <!-- Water shadow/shore -->
  <ellipse cx="32" cy="34" rx="30" ry="12" fill="#40A0C0" opacity="0.3"/>
  <!-- Sandy beach -->
  <ellipse cx="32" cy="30" rx="26" ry="10" fill="#E8D8A0"/>
  <!-- Beach edge detail -->
  <ellipse cx="32" cy="32" rx="27" ry="10" fill="#F0E0B0" opacity="0.4"/>
  <!-- Green land -->
  <ellipse cx="32" cy="26" rx="20" ry="9" fill="#4CAF50"/>
  <!-- Darker grass patches -->
  <ellipse cx="26" cy="24" rx="6" ry="4" fill="#3D8B40" opacity="0.5"/>
  <ellipse cx="38" cy="27" rx="5" ry="3" fill="#3D8B40" opacity="0.5"/>
  <!-- Palm tree 1 trunk -->
  <path d="M24 26 Q22 18 20 12" fill="none" stroke="#8B6B3A" stroke-width="2" stroke-linecap="round"/>
  <!-- Palm tree 1 leaves -->
  <ellipse cx="17" cy="10" rx="5" ry="2" fill="#2E7D32" transform="rotate(-20,17,10)"/>
  <ellipse cx="23" cy="9" rx="5" ry="2" fill="#388E3C" transform="rotate(15,23,9)"/>
  <ellipse cx="19" cy="8" rx="4" ry="1.5" fill="#43A047" transform="rotate(-40,19,8)"/>
  <!-- Palm tree 2 trunk -->
  <path d="M40 25 Q42 17 44 11" fill="none" stroke="#8B6B3A" stroke-width="1.8" stroke-linecap="round"/>
  <!-- Palm tree 2 leaves -->
  <ellipse cx="47" cy="9" rx="4.5" ry="1.8" fill="#2E7D32" transform="rotate(20,47,9)"/>
  <ellipse cx="41" cy="8" rx="4.5" ry="1.8" fill="#388E3C" transform="rotate(-15,41,8)"/>
  <ellipse cx="45" cy="7" rx="4" ry="1.5" fill="#43A047" transform="rotate(35,45,7)"/>
  <!-- Coconuts -->
  <circle cx="20" cy="12" r="1" fill="#8B6B3A"/>
  <circle cx="44" cy="11" r="0.9" fill="#8B6B3A"/>
  <!-- Small rocks -->
  <ellipse cx="12" cy="32" rx="2" ry="1" fill="#A0A0A0" opacity="0.6"/>
  <ellipse cx="50" cy="31" rx="1.5" ry="0.8" fill="#A0A0A0" opacity="0.6"/>
  <!-- Wave hints around shore -->
  <path d="M6 36 Q10 35 14 36" fill="none" stroke="white" stroke-width="0.5" opacity="0.4"/>
  <path d="M48 37 Q52 36 56 37" fill="none" stroke="white" stroke-width="0.5" opacity="0.4"/>
</svg>
