<svg xmlns="http://www.w3.org/2000/svg" viewBox="0 0 26 18">
  <!-- Body -->
  <ellipse cx="12" cy="9" rx="10" ry="7" fill="#8B6B4A" stroke="#6B4B2A" stroke-width="0.5"/>
  <!-- Belly -->
  <ellipse cx="12" cy="12" rx="7" ry="3.5" fill="#A08060" opacity="0.5"/>
  <!-- Spots -->
  <circle cx="7" cy="7" r="1" fill="#6B4B2A" opacity="0.4"/>
  <circle cx="10" cy="5" r="0.8" fill="#6B4B2A" opacity="0.4"/>
  <circle cx="14" cy="6" r="1.1" fill="#6B4B2A" opacity="0.4"/>
  <circle cx="11" cy="9" r="0.9" fill="#6B4B2A" opacity="0.4"/>
  <circle cx="16" cy="8" r="0.7" fill="#6B4B2A" opacity="0.4"/>
  <circle cx="8" cy="11" r="0.8" fill="#6B4B2A" opacity="0.4"/>
  <circle cx="15" cy="11" r="1" fill="#6B4B2A" opacity="0.4"/>
  <!-- Dorsal fin -->
  <polygon points="5,2 17,2 12,0" fill="#7B5B3A" stroke="#6B4B2A" stroke-width="0.3"/>
  <!-- Tail -->
  <polygon points="22,9 26,4 26,14" fill="#7B5B3A" stroke="#6B4B2A" stroke-width="0.3"/>
  <!-- Pectoral fin -->
  <ellipse cx="8" cy="11" rx="3" ry="1.2" fill="#7B5B3A" transform="rotate(-20,8,11)" opacity="0.7"/>
  <!-- Ventral fin -->
  <polygon points="10,16 14,18 13,14" fill="#7B5B3A" opacity="0.7"/>
  <!-- Eye -->
  <circle cx="4.5" cy="8" r="1.3" fill="#222222"/>
  <circle cx="4.2" cy="7.6" r="0.45" fill="white"/>
  <!-- Mouth -->
  <path d="M2 10 Q3.5 9.5 3.5 8.5" fill="none" stroke="#6B4B2A" stroke-width="0.5"/>
</svg>
