<svg xmlns="http://www.w3.org/2000/svg" viewBox="0 0 36 20">
  <!-- Body / wings -->
  <path d="M18 4 Q28 2 36 0 Q34 8 28 12 Q22 16 18 16 Q14 16 8 12 Q2 8 0 0 Q8 2 18 4 Z" fill="#505860" stroke="#383E48" stroke-width="0.5"/>
  <!-- Belly highlight -->
  <ellipse cx="18" cy="9" rx="6" ry="4" fill="#687078" opacity="0.4"/>
  <!-- Tail -->
  <path d="M18 16 Q18 18 17 20" fill="none" stroke="#505860" stroke-width="1" stroke-linecap="round"/>
  <!-- Head horns (cephalic fins) -->
  <path d="M15 4 Q14 1 13 0" fill="none" stroke="#505860" stroke-width="1.5" stroke-linecap="round"/>
  <path d="M21 4 Q22 1 23 0" fill="none" stroke="#505860" stroke-width="1.5" stroke-linecap="round"/>
  <!-- Eyes -->
  <circle cx="14" cy="5" r="0.8" fill="#222222"/>
  <circle cx="22" cy="5" r="0.8" fill="#222222"/>
  <!-- Gill slits -->
  <line x1="15" y1="8" x2="15" y2="10" stroke="#383E48" stroke-width="0.3" opacity="0.5"/>
  <line x1="16.5" y1="8.5" x2="16.5" y2="10.5" stroke="#383E48" stroke-width="0.3" opacity="0.5"/>
  <line x1="19.5" y1="8.5" x2="19.5" y2="10.5" stroke="#383E48" stroke-width="0.3" opacity="0.5"/>
  <line x1="21" y1="8" x2="21" y2="10" stroke="#383E48" stroke-width="0.3" opacity="0.5"/>
  <!-- Spots -->
  <circle cx="10" cy="7" r="0.6" fill="#606870" opacity="0.5"/>
  <circle cx="26" cy="7" r="0.6" fill="#606870" opacity="0.5"/>
</svg>
