<svg xmlns="http://www.w3.org/2000/svg" viewBox="0 0 24 24">
  <!-- Body -->
  <ellipse cx="12" cy="8" rx="7" ry="6" fill="#E06030" stroke="#C04820" stroke-width="0.5"/>
  <!-- Eyes -->
  <ellipse cx="9" cy="7" rx="1.8" ry="2" fill="white"/>
  <ellipse cx="15" cy="7" rx="1.8" ry="2" fill="white"/>
  <circle cx="9" cy="7.5" r="1" fill="#222222"/>
  <circle cx="15" cy="7.5" r="1" fill="#222222"/>
  <circle cx="8.7" cy="7.2" r="0.35" fill="white"/>
  <circle cx="14.7" cy="7.2" r="0.35" fill="white"/>
  <!-- Tentacles -->
  <path d="M5 13 Q2 16 1 19 Q0.5 21 2 22" fill="none" stroke="#D85828" stroke-width="1.5" stroke-linecap="round"/>
  <path d="M7 14 Q5 18 4 21 Q3.5 23 5 24" fill="none" stroke="#D85828" stroke-width="1.5" stroke-linecap="round"/>
  <path d="M9.5 14 Q8 18 8 22 Q8 24 9 24" fill="none" stroke="#D85828" stroke-width="1.5" stroke-linecap="round"/>
  <path d="M12 14 Q12 19 12 24" fill="none" stroke="#D85828" stroke-width="1.5" stroke-linecap="round"/>
  <path d="M14.5 14 Q16 18 16 22 Q16 24 15 24" fill="none" stroke="#D85828" stroke-width="1.5" stroke-linecap="round"/>
  <path d="M17 14 Q19 18 20 21 Q20.5 23 19 24" fill="none" stroke="#D85828" stroke-width="1.5" stroke-linecap="round"/>
  <path d="M19 13 Q22 16 23 19 Q23.5 21 22 22" fill="none" stroke="#D85828" stroke-width="1.5" stroke-linecap="round"/>
  <!-- Suction cups hint -->
  <circle cx="3" cy="19" r="0.4" fill="#C04820" opacity="0.5"/>
  <circle cx="5" cy="22" r="0.4" fill="#C04820" opacity="0.5"/>
  <circle cx="9" cy="22" r="0.4" fill="#C04820" opacity="0.5"/>
</svg>
